<?xml version="1.0" encoding="utf-8"?>
<!-- Generator: Adobe Illustrator 16.2.1, SVG Export Plug-In . SVG Version: 6.00 Build 0)  -->
<!DOCTYPE svg PUBLIC "-//W3C//DTD SVG 1.1//EN" "http://www.w3.org/Graphics/SVG/1.1/DTD/svg11.dtd">
<svg version="1.1" id="Layer_1" xmlns="http://www.w3.org/2000/svg" xmlns:xlink="http://www.w3.org/1999/xlink" x="0px" y="0px"
	 width="60.333px" height="51.667px" viewBox="-4.333 -0.833 60.333 51.667" enable-background="new -4.333 -0.833 60.333 51.667"
	 xml:space="preserve">
<title>Basis</title>
<g>
	<title>Layer 1</title>
	<g id="svg_7">
		<g id="Layer_1_1_" transform="matrix(0.482417 0 0 0.4791 5647.09 3635.69)">
			<path id="path19" fill="#1A1447" stroke="#14123B" stroke-width="3" d="M-11703.831-7491.672
				c7.769-5.259,13.571-9.242,17.307-11.994c3.736-2.705,7.672-6.097,11.701-10.128c4.031-4.032,7.425-8.604,10.177-13.667
				c2.163-3.738,4.031-8.063,5.557-12.978c1.523-4.868,2.311-9.587,2.459-14.062c0-4.18-0.542-8.16-1.671-11.897
				c-1.083-3.785-2.95-6.883-5.606-9.39c-2.655-2.459-6.097-3.689-10.374-3.689c-4.129,0-8.013,0.837-11.651,2.459
				c-3.588,1.671-6.146,4.326-7.571,8.062c0,0.344-0.196,0.787-0.491,1.428c0.098,0.786,0.491,1.377,1.229,1.819
				c0.737,0.442,1.377,0.638,1.966,0.638c0.296,0,1.131-0.146,2.41-0.44c1.327-0.297,2.408-0.494,3.295-0.494
				c2.605,0,4.915,0.934,7.03,2.754c2.063,1.82,3.099,4.032,3.099,6.637c0,1.869-0.542,3.638-1.575,5.26
				c-1.032,1.623-2.459,2.949-4.277,3.886c-1.819,0.982-3.835,1.425-5.997,1.425c-3.935,0-7.277-1.182-10.03-3.587
				c-2.705-2.458-4.08-5.555-4.08-9.439c0-4.966,1.523-9.244,4.524-12.88c3.045-3.641,6.882-6.345,11.601-8.162
				c4.671-1.868,9.391-2.753,14.208-2.753c5.263,0,10.276,1.327,14.946,4.032c4.721,2.656,8.409,6.343,11.162,10.916
				c2.753,4.622,4.177,9.537,4.177,14.848c0,9.438-3.148,18.191-9.438,26.303c-6.294,8.111-14.062,15.139-23.353,21.14
				c-6.195,4.081-16.225,9.59-30.04,16.521L-11703.831-7491.672z"/>
		</g>
		<g id="svg_5" transform="matrix(0.482417 0 0 0.4791 5647.09 3635.69)">
			<path id="svg_6" fill="#1A1447" stroke="#14123B" stroke-width="3" d="M-11681.282-7492.455
				c7.769-5.263,13.568-9.246,17.305-11.998c3.738-2.705,7.671-6.097,11.702-10.128c4.031-4.032,7.423-8.602,10.178-13.667
				c2.162-3.738,4.028-8.062,5.555-12.978c1.522-4.868,2.308-9.588,2.458-14.062c0-4.179-0.543-8.16-1.67-11.898
				c-1.083-3.785-2.952-6.882-5.604-9.39c-2.658-2.458-6.099-3.687-10.375-3.687c-4.132,0-8.015,0.834-11.651,2.457
				c-3.591,1.672-6.147,4.328-7.571,8.063c0,0.344-0.197,0.787-0.493,1.428c0.098,0.787,0.493,1.376,1.229,1.82
				c0.738,0.44,1.376,0.638,1.966,0.638c0.296,0,1.131-0.146,2.409-0.442c1.328-0.296,2.409-0.492,3.295-0.492
				c2.605,0,4.917,0.935,7.029,2.753c2.065,1.818,3.098,4.031,3.098,6.638c0,1.868-0.54,3.637-1.573,5.26
				c-1.031,1.623-2.458,2.95-4.276,3.885c-1.82,0.982-3.836,1.425-5.998,1.425c-3.934,0-7.276-1.18-10.029-3.589
				c-2.704-2.458-4.082-5.555-4.082-9.439c0-4.966,1.526-9.244,4.522-12.88c3.049-3.639,6.884-6.344,11.604-8.164
				c4.671-1.867,9.39-2.752,14.211-2.752c5.258,0,10.271,1.327,14.942,4.032c4.721,2.655,8.409,6.342,11.162,10.914
				c2.753,4.623,4.179,9.539,4.179,14.848c0,9.439-3.145,18.19-9.441,26.303c-6.292,8.11-14.06,15.141-23.352,21.141
				c-6.194,4.079-16.224,9.586-30.039,16.519L-11681.282-7492.455z M-11612.996-7568.515c0-1.771,0.644-3.244,1.921-4.425
				c1.228-1.23,2.751-1.82,4.569-1.82c1.575,0,3.051,0.689,4.377,2.018c1.327,1.278,1.967,2.8,1.967,4.474
				c0,1.77-0.688,3.294-1.967,4.523c-1.377,1.182-2.899,1.769-4.62,1.769c-1.821,0-3.296-0.587-4.474-1.916
				C-11612.402-7565.171-11612.996-7566.695-11612.996-7568.515z M-11612.996-7542.751c0-1.77,0.644-3.294,1.822-4.474
				c1.229-1.231,2.753-1.82,4.668-1.82c1.575,0,3,0.638,4.377,1.968c1.279,1.328,1.967,2.753,1.967,4.326
				c0,1.918-0.64,3.441-1.866,4.672c-1.279,1.227-2.755,1.867-4.476,1.867c-1.917,0-3.439-0.64-4.67-1.82
				C-11612.353-7539.212-11612.996-7540.785-11612.996-7542.751z"/>
		</g>
	</g>
</g>
</svg>
