<?xml version="1.0" encoding="UTF-8" standalone="no"?>
<!DOCTYPE svg PUBLIC "-//W3C//DTD SVG 20010904//EN"
"http://www.w3.org/TR/2001/REC-SVG-20010904/DTD/svg10.dtd">
<!-- Copyright (c) 2013 Andrew Hundt -->
<svg width="1017" height="921" xmlns="http://www.w3.org/2000/svg">
 <title>Basis</title>
 <metadata id="metadata22">image/svg+xml</metadata>
 <defs>
  <style type="text/css">.str1 {stroke:#131516;stroke-width:3}
    .str0 {stroke:#131516;stroke-width:42}
    .fil0 {fill:none}
    .fil1 {fill:#131516}</style>
 </defs>
 <g>
  <title>Layer 1</title>
  <g id="svg_7">
   <g transform="matrix(0.482417 0 0 0.4791 5647.09 3635.69)" id="Layer 1">
    <path stroke="#131516" fill="#131516" stroke-width="3" id="path19" d="m-11705.839844,-5717.585938c158,-107 276,-188 352,-244c76,-55 156,-124 238,-206c82,-82 151,-175 207,-278c44,-76 82,-164 113,-264c31,-99 47,-195 50,-286c0,-85 -11,-166 -34,-242c-22,-77 -60,-140 -114,-191c-54,-50 -124,-75 -211,-75c-84,0 -163,17 -237,50c-73,34 -125,88 -154,164c0,7 -4,16 -10,29c2,16 10,28 25,37c15,9 28,13 40,13c6,0 23,-3 49,-9c27,-6 49,-10 67,-10c53,0 100,19 143,56c42,37 63,82 63,135c0,38 -11,74 -32,107c-21,33 -50,60 -87,79c-37,20 -78,29 -122,29c-80,0 -148,-24 -204,-73c-55,-50 -83,-113 -83,-192c0,-101 31,-188 92,-262c62,-74 140,-129 236,-166c95,-38 191,-56 289,-56c107,0 209,27 304,82c96,54 171,129 227,222c56,94 85,194 85,302c0,192 -64,370 -192,535c-128,165 -286,308 -475,430c-126,83 -330,195 -611,335.999512l-14,-51.999512zm1389,-1547c0,-36 13,-66 39,-90c25,-25 56,-37 93,-37c32,0 62,14 89,41c27,26 40,57 40,91c0,36 -14,67 -40,92c-28,24 -59,36 -94,36c-37,0 -67,-12 -91,-39c-24,-26 -36,-57 -36,-94zm0,524c0,-36 13,-67 37,-91c25,-25 56,-37 95,-37c32,0 61,13 89,40c26,27 40,56 40,88c0,39 -13,70 -38,95c-26,25 -56,38 -91,38c-39,0 -70,-13 -95,-37c-24,-24 -37,-56 -37,-96z" class="fil1 str1"/>
   </g>
   <g id="svg_5" transform="matrix(0.482417 0 0 0.4791 5647.09 3635.69)">
    <path stroke="#131516" id="svg_6" fill="#131516" stroke-width="3" d="m-11247.229492,-5733.585449c158,-107 276,-188 352,-244c76,-55 156,-124 238,-206c82,-82 151,-175 207,-278c44,-76 82,-164 113,-264c31,-99 47,-195 50,-286c0,-85 -11,-166 -34,-242c-22,-77 -60,-140 -114,-191c-54,-50 -124,-75 -211,-75c-84,0 -163,17 -237,50c-73,34 -125,88 -154,164c0,7 -4,16 -10,29c2,16 10,28 25,37c15,9 28,13 40,13c6,0 23,-3 49,-9c27,-6 49,-10 67,-10c53,0 100,19 143,56c42,37 63,82 63,135c0,38 -11,74 -32,107c-21,33 -50,60 -87,79c-37,20 -78,29 -122,29c-80,0 -148,-24 -204,-73c-55,-50 -83,-113 -83,-192c0,-101 31,-188 92,-262c62,-74 140,-129 236,-166c95,-38 191,-56 289,-56c107,0 209,27 304,82c96,54 171,129 227,222c56,94 85,194 85,302c0,192 -64,370 -192,535c-128,165 -286,308 -475,430c-126,83 -330,195 -611,335.999023l-14,-51.999023zm1389,-1547c0,-36 13,-66 39,-90c25,-25 56,-37 93,-37c32,0 62,14 89,41c27,26 40,57 40,91c0,36 -14,67 -40,92c-28,24 -59,36 -94,36c-37,0 -67,-12 -91,-39c-24,-26 -36,-57 -36,-94zm0,524c0,-36 13,-67 37,-91c25,-25 56,-37 95,-37c32,0 61,13 89,40c26,27 40,56 40,88c0,39 -13,70 -38,95c-26,25 -56,38 -91,38c-39,0 -70,-13 -95,-37c-24,-24 -37,-56 -37,-96z" class="fil1 str1"/>
   </g>
  </g>
 </g>
</svg>